<svg width="64" height="64" viewBox="0 0 64 64" fill="none" xmlns="http://www.w3.org/2000/svg">
<path d="M32 0C36.2023 0 40.3635 0.827705 44.2459 2.43586C48.1283 4.04401 51.6559 6.40111 54.6274 9.37258C57.5989 12.3441 59.956 15.8717 61.5641 19.7541C63.1723 23.6365 64 27.7977 64 32C64 40.4869 60.6286 48.6263 54.6274 54.6274C48.6263 60.6286 40.4869 64 32 64C27.7977 64 23.6365 63.1723 19.7541 61.5641C15.8717 59.956 12.3441 57.5989 9.37258 54.6274C3.37142 48.6263 0 40.4869 0 32C0 23.5131 3.37142 15.3737 9.37258 9.37258C15.3737 3.37142 23.5131 0 32 0ZM32 6.4C25.2105 6.4 18.699 9.09714 13.8981 13.8981C9.09714 18.699 6.4 25.2105 6.4 32C6.4 38.7895 9.09714 45.301 13.8981 50.1019C18.699 54.9029 25.2105 57.6 32 57.6C38.7895 57.6 45.301 54.9029 50.1019 50.1019C54.9029 45.301 57.6 38.7895 57.6 32C57.6 25.2105 54.9029 18.699 50.1019 13.8981C45.301 9.09714 38.7895 6.4 32 6.4ZM28.8 46.4L14.4 32L18.912 27.488L28.8 37.344L46.688 19.488L51.2 24L28.8 46.4Z" fill="#17F612"/>
</svg>
