<?xml version="1.0" encoding="UTF-8"?><!DOCTYPE svg PUBLIC "-//W3C//DTD SVG 1.1//EN" "http://www.w3.org/Graphics/SVG/1.1/DTD/svg11.dtd"><svg xmlns="http://www.w3.org/2000/svg"><symbol id="icon-arr" viewBox="0 0 21 13">
  <path d="M20.6 2.5665L18.2666 0.23317L10.6 7.89984L2.93331 0.23317L0.599974 2.5665L10.6 12.5665L20.6 2.5665Z"/>
</symbol><symbol id="icon-arrow" viewBox="0 0 20 15">
	<path d="M 14.585938 8 L 10.292969 12.292969 C 9.902344 12.683594 9.902344 13.316406 10.292969 13.707031 C 10.683594 14.097656 11.316406 14.097656 11.707031 13.707031 L 17.707031 7.707031 C 18.097656 7.316406 18.097656 6.683594 17.707031 6.292969 L 11.707031 0.292969 C 11.316406 -0.0976562 10.683594 -0.0976562 10.292969 0.292969 C 9.902344 0.683594 9.902344 1.316406 10.292969 1.707031 L 14.585938 6 L 1 6 C 0.449219 6 0 6.449219 0 7 C 0 7.550781 0.449219 8 1 8 Z M 14.585938 8 "/>
</symbol><symbol id="icon-cancel" viewBox="0 0 24 24">
<path d="M12 0C13.5759 0 15.1363 0.310389 16.5922 0.913446C18.0481 1.5165 19.371 2.40042 20.4853 3.51472C21.5996 4.62902 22.4835 5.95189 23.0866 7.4078C23.6896 8.86371 24 10.4241 24 12C24 15.1826 22.7357 18.2348 20.4853 20.4853C18.2348 22.7357 15.1826 24 12 24C10.4241 24 8.86371 23.6896 7.4078 23.0866C5.95189 22.4835 4.62902 21.5996 3.51472 20.4853C1.26428 18.2348 0 15.1826 0 12C0 8.8174 1.26428 5.76516 3.51472 3.51472C5.76516 1.26428 8.8174 0 12 0ZM12 2.4C9.45392 2.4 7.01212 3.41143 5.21178 5.21178C3.41143 7.01212 2.4 9.45392 2.4 12C2.4 14.22 3.156 16.26 4.416 17.892L17.892 4.416C16.26 3.156 14.22 2.4 12 2.4ZM12 21.6C14.5461 21.6 16.9879 20.5886 18.7882 18.7882C20.5886 16.9879 21.6 14.5461 21.6 12C21.6 9.78 20.844 7.74 19.584 6.108L6.108 19.584C7.74 20.844 9.78 21.6 12 21.6Z"/>
</symbol><symbol id="icon-gender-man" viewBox="0 0 28 28">
<path d="M8.67207 20.5397C9.3974 20.5397 10.0747 20.4023 10.7041 20.127C11.3334 19.8519 11.8827 19.4816 12.3521 19.0159C12.8214 18.5503 13.1894 18.0054 13.456 17.381C13.7227 16.7566 13.8559 16.0847 13.8559 15.3651C13.8559 14.6667 13.7226 14.0053 13.456 13.381C13.1893 12.7566 12.8212 12.2116 12.3521 11.746C11.8827 11.2804 11.3334 10.9101 10.7041 10.6349C10.0747 10.3598 9.3974 10.2222 8.67207 10.2222C7.96807 10.2222 7.30141 10.3598 6.67208 10.6349C6.04274 10.9101 5.49341 11.2804 5.02408 11.746C4.55475 12.2116 4.18142 12.7565 3.90409 13.381C3.62676 14.0053 3.48809 14.6667 3.48809 15.3651C3.48809 16.0847 3.62676 16.7566 3.90409 17.381C4.18142 18.0053 4.55475 18.5503 5.02408 19.0159C5.49341 19.4816 6.04274 19.8519 6.67208 20.127C7.30141 20.4022 7.96807 20.5397 8.67207 20.5397ZM24 4.12698L23.9682 4.09524V8.50794C23.9682 8.95238 23.808 9.33333 23.488 9.65079C23.168 9.96826 22.7733 10.127 22.304 10.127C21.856 10.127 21.4507 9.96826 21.088 9.65079C20.768 9.33333 20.6078 8.95238 20.6078 8.50794V5.74603L15.8398 10.4762C16.3305 11.1746 16.7092 11.9365 16.9759 12.7619C17.2426 13.5873 17.3759 14.455 17.3759 15.3651C17.3759 16.5504 17.1465 17.6667 16.6879 18.7143C16.2293 19.7617 15.6052 20.6773 14.8158 21.4603C14.0265 22.2435 13.1038 22.8624 12.0478 23.3176C10.9918 23.7726 9.86652 24 8.67186 24C7.4772 24 6.35187 23.7725 5.29587 23.3176C4.23988 22.8626 3.31721 22.2435 2.52788 21.4603C1.73855 20.6773 1.11989 19.7619 0.671893 18.7143C0.223999 17.6667 0 16.5503 0 15.3651C0 14.1799 0.223999 13.0635 0.671997 12.0159C1.12 10.9683 1.73866 10.0582 2.52799 9.28571C3.31732 8.51323 4.23998 7.89947 5.29598 7.44445C6.35197 6.98942 7.4773 6.76191 8.67196 6.76191C9.56796 6.76191 10.4106 6.8836 11.2 7.12698C11.9893 7.37037 12.7252 7.71429 13.408 8.15873L13.3761 8.12698L18.2399 3.33333H15.424C14.9546 3.33333 14.5707 3.16402 14.272 2.8254C14.1013 2.67725 13.9787 2.50265 13.904 2.30159C13.8294 2.10053 13.792 1.8836 13.792 1.65079C13.792 1.18519 13.952 0.793651 14.272 0.476191C14.5494 0.15873 14.9333 0 15.424 0H19.52H20.576H23.9999L24 4.12698Z"/>
</symbol><symbol id="icon-gender-woman" viewBox="0 0 28 28">
<path d="M13.4361 7.63848C13.0067 8.0975 12.6903 8.61003 12.4868 9.17607C12.2833 9.7421 12.1912 10.3145 12.2105 10.8934C12.2298 11.4722 12.3563 12.034 12.5901 12.5787C12.8238 13.1235 13.1703 13.6104 13.6293 14.0398C14.0884 14.4692 14.6008 14.7857 15.1669 14.9892C15.7329 15.1927 16.3053 15.2848 16.8842 15.2655C17.463 15.2462 18.028 15.1162 18.5793 14.8755C19.1305 14.6347 19.6208 14.2849 20.0502 13.8258C20.4796 13.3668 20.796 12.8542 20.9995 12.2883C21.2031 11.7223 21.2951 11.1498 21.2758 10.571C21.2565 9.99218 21.1265 9.42712 20.8858 8.87589C20.6451 8.32466 20.2952 7.83434 19.8362 7.40494C19.3772 6.97553 18.8681 6.66234 18.309 6.46536C17.7499 6.26838 17.181 6.17954 16.6022 6.19883C16.0233 6.21812 15.4583 6.34813 14.9071 6.58886C14.3559 6.82959 13.8655 7.17946 13.4361 7.63848ZM22.2827 15.9143C21.6581 16.582 20.9481 17.111 20.1525 17.5014C19.357 17.8917 18.5329 18.1381 17.6808 18.2407C16.8285 18.3432 15.9749 18.3077 15.1201 18.134C14.2654 17.9604 13.4595 17.6368 12.7025 17.1634L11.1019 18.8745L12.5416 20.2213C12.8476 20.5075 13.0072 20.8525 13.0208 21.2564C13.0343 21.6603 12.8914 22.0222 12.5921 22.3421C12.2929 22.662 11.9412 22.8286 11.5374 22.8421C11.1336 22.8556 10.7785 22.7193 10.4725 22.433L9.03284 21.0862L7.60799 22.6093C7.32169 22.9153 6.97677 23.0749 6.57281 23.0885C6.14112 23.0759 5.77922 22.9331 5.48711 22.6599C5.19501 22.3866 5.02841 22.035 4.9871 21.6051C4.97367 21.2013 5.11005 20.8464 5.39635 20.5403L6.82126 19.0171L5.46506 17.7484C5.17296 17.4752 5.02321 17.1264 5.01583 16.7022C5.00834 16.278 5.14123 15.9199 5.41459 15.6277C5.68794 15.3355 6.0394 15.1689 6.46926 15.1276C6.87312 15.1141 7.22801 15.2505 7.53402 15.5368L8.89022 16.8055L10.5103 15.0736C10.0145 14.349 9.65176 13.5727 9.42203 12.7449C9.19229 11.917 9.10715 11.081 9.1666 10.2368C9.22606 9.39253 9.42427 8.56726 9.76125 7.76095C10.0982 6.95463 10.579 6.21764 11.2036 5.54997C11.9193 4.78494 12.7387 4.20174 13.6619 3.80038C14.5851 3.39902 15.5313 3.18218 16.5005 3.14988C17.4697 3.11757 18.4248 3.26766 19.3657 3.60015C20.3066 3.93264 21.1596 4.45672 21.9246 5.17236C22.6896 5.88801 23.2729 6.70751 23.6742 7.63068C24.0755 8.55388 24.2924 9.50008 24.3248 10.4694C24.3571 11.4386 24.2036 12.397 23.8648 13.345C23.5257 14.2928 22.9984 15.1493 22.2827 15.9143Z"/>
</symbol><symbol id="icon-info" viewBox="0 0 32 32">
<path d="M14.1865 10.4427C14.245 10.5597 14.3035 10.6767 14.362 10.7644C14.4205 10.8522 14.5083 10.9399 14.5668 11.0277C14.6545 11.1154 14.7423 11.2032 14.8593 11.2909C14.947 11.3494 15.064 11.4372 15.2103 11.4664C15.3273 11.5249 15.4443 11.5542 15.5906 11.5834C15.7368 11.6127 15.8538 11.6127 15.9708 11.6127C16.0878 11.6127 16.2341 11.6127 16.3511 11.5834C16.4681 11.5542 16.5851 11.5249 16.6728 11.4664H16.7021C16.8191 11.4079 16.9361 11.3494 17.0531 11.2617C17.1408 11.2032 17.2286 11.1154 17.3163 11.0277L17.3456 10.9984C17.4333 10.9107 17.4918 10.8229 17.5503 10.7352C17.6088 10.6474 17.6673 10.5597 17.6966 10.4427C17.6966 10.4134 17.6966 10.4134 17.7258 10.3842C17.7843 10.2672 17.8136 10.1209 17.8428 10.0039C17.8721 9.88692 17.8721 9.74066 17.8721 9.62366C17.8721 9.50666 17.8721 9.36041 17.8428 9.24341C17.8136 9.1264 17.7843 9.0094 17.7258 8.86315C17.6381 8.6584 17.5211 8.48289 17.3748 8.33664C17.3456 8.30739 17.3456 8.30739 17.3163 8.27814C17.2286 8.19039 17.1408 8.13189 17.0238 8.04414C16.9068 7.98564 16.8191 7.92713 16.7021 7.86863C16.5851 7.81013 16.4681 7.78088 16.3511 7.75163C16.2048 7.72238 16.0878 7.72238 15.9708 7.72238C15.8538 7.72238 15.7076 7.72238 15.5906 7.75163C15.4736 7.78088 15.3566 7.81013 15.2396 7.86863H15.2103C15.0933 7.92713 14.9763 7.98564 14.8885 8.04414C14.7715 8.13189 14.6838 8.19039 14.596 8.27814C14.5083 8.36589 14.4205 8.45364 14.362 8.54139C14.3035 8.62915 14.245 8.74615 14.1865 8.86315C14.128 8.98015 14.0988 9.09715 14.0695 9.21416C14.0403 9.36041 14.0403 9.47741 14.0403 9.59441C14.0403 9.71141 14.0403 9.85766 14.0695 9.97467C14.0988 10.2087 14.1573 10.3257 14.1865 10.4427Z"/>
<path d="M18.2514 21.148H17.5786V13.9816C17.5786 13.5721 17.2569 13.2211 16.8181 13.2211H13.7468C13.3373 13.2211 12.9863 13.5429 12.9863 13.9816V15.5612C12.9863 15.9707 13.3081 16.3217 13.7468 16.3217H14.3611V21.1773H13.7468C13.3373 21.1773 12.9863 21.499 12.9863 21.9378V23.5173C12.9863 23.9268 13.3081 24.2778 13.7468 24.2778H18.2514C18.6609 24.2778 19.0119 23.956 19.0119 23.5173V21.9378C19.0119 21.499 18.6609 21.148 18.2514 21.148Z"/>
<path d="M16 0C7.16636 0 0 7.16636 0 16C0 24.8336 7.16636 32 16 32C24.8336 32 32 24.8336 32 16C32 7.16636 24.8336 0 16 0ZM16 29.894C8.33638 29.894 2.10603 23.6636 2.10603 16C2.10603 8.33638 8.33638 2.10603 16 2.10603C23.6636 2.10603 29.894 8.33638 29.894 16C29.894 23.6636 23.6636 29.894 16 29.894Z"/>
</symbol><symbol id="icon-man" viewBox="0 0 67 78">
<path d="M0 60.1323C3.11486 59.181 5.8938 58.4445 8.5964 57.4932C12.093 56.2656 15.559 54.9307 18.9945 53.519C21.407 52.5216 22.201 49.284 21.0558 46.9824C19.9107 44.6808 19.1472 42.195 18.1395 39.8167C17.7577 38.896 17.2386 38.0214 16.6889 37.1775C14.6887 34.1547 13.742 30.779 13.7573 27.2191C13.7573 26.2985 14.8567 25.3778 15.7423 24.0122C14.6276 19.8079 14.9177 15.1126 17.4829 10.7855C21.3765 4.23354 29.2705 -1.59724 38.0501 0.397503C41.6536 1.21074 44.7074 2.91395 47.0283 5.86003C47.2878 6.18225 47.5474 6.59655 47.8986 6.7193C52.4029 8.37647 53.1816 12.2739 53.3801 16.2941C53.5023 18.8719 52.9679 21.465 52.8457 24.0582C52.7999 24.8868 53.1053 25.7307 53.258 26.5747C53.4412 27.5874 53.9298 28.6768 53.7466 29.6281C53.2732 31.9605 52.5403 34.2314 51.8074 36.5023C51.6089 37.1468 51.1509 38.0521 50.647 38.1748C48.6468 38.6965 48.7384 40.4304 48.204 41.8421C47.6237 43.3458 47.0741 44.8802 46.3259 46.3073C44.5547 49.6063 45.6082 52.9359 49.1201 54.1635C54.2046 55.9434 59.335 57.5545 64.4501 59.2577C65.2288 59.5186 65.9923 59.8408 67 60.2244C58.8159 71.5177 48.0665 77.7628 34.3093 77.993C19.9565 78.2385 8.67274 72.0548 0 60.1323Z"/>
</symbol><symbol id="icon-marriage" viewBox="0 0 107 64">
<path fill-rule="evenodd" clip-rule="evenodd" d="M32 54C44.1503 54 54 44.1503 54 32C54 19.8497 44.1503 10 32 10C19.8497 10 10 19.8497 10 32C10 44.1503 19.8497 54 32 54ZM32 64C49.6731 64 64 49.6731 64 32C64 14.3269 49.6731 0 32 0C14.3269 0 0 14.3269 0 32C0 49.6731 14.3269 64 32 64Z"/>
<path fill-rule="evenodd" clip-rule="evenodd" d="M74.4619 54C86.6122 54 96.4619 44.1503 96.4619 32C96.4619 19.8497 86.6122 10 74.4619 10C62.3116 10 52.4619 19.8497 52.4619 32C52.4619 44.1503 62.3116 54 74.4619 54ZM74.4619 64C92.135 64 106.462 49.6731 106.462 32C106.462 14.3269 92.135 0 74.4619 0C56.7888 0 42.4619 14.3269 42.4619 32C42.4619 49.6731 56.7888 64 74.4619 64Z"/>
</symbol><symbol id="icon-password" viewBox="0 0 41 20">
<path d="M39.7511 9.20664C39.3941 8.83124 30.8768 0 20.0025 0C9.1281 0 0.610798 8.83124 0.253858 9.20664C-0.0846194 9.56358 -0.0846194 10.0436 0.253858 10.4005C0.610798 10.7759 9.1281 19.6071 20.0025 19.6071C30.8768 19.6071 39.3941 10.7759 39.7511 10.4005C40.0896 10.0436 40.0896 9.56358 39.7511 9.20664ZM20.0025 17.5824C11.9898 17.5824 5.05406 11.7175 2.99858 9.80357C5.05406 7.88348 11.9775 2.02474 20.0025 2.02474C28.0152 2.02474 34.9509 7.88964 37.0064 9.80357C34.9509 11.7237 28.0275 17.5824 20.0025 17.5824Z"/>
<path d="M20.002 3.71713C15.6387 3.71713 12.0878 6.44958 12.0878 9.80358C12.0878 13.1576 15.6387 15.89 20.002 15.89C24.3653 15.89 27.9162 13.1576 27.9162 9.80358C27.9162 6.44958 24.3653 3.71713 20.002 3.71713ZM20.002 13.8591C17.0911 13.8591 14.7279 12.0437 14.7279 9.80358C14.7279 7.56348 17.0911 5.74803 20.002 5.74803C22.9129 5.74803 25.276 7.56348 25.276 9.80358C25.276 12.0437 22.9129 13.8591 20.002 13.8591Z"/>
</symbol><symbol id="icon-plus" viewBox="0 0 102 102">
<path d="M99 59.3571H100.5V57.8571V44.1429V42.6429H99H59.3571V3V1.5H57.8571H44.1429H42.6429V3V42.6429H3H1.5V44.1429V57.8571V59.3571H3H42.6429V99V100.5H44.1429H57.8571H59.3571V99V59.3571H99Z" stroke-width="3"/>
</symbol><symbol id="icon-save" viewBox="0 0 90 90">
	<path d="M80.49,32.94,67.06,19.51A5.18,5.18,0,0,0,63.4,18H23.17A5.18,5.18,0,0,0,18,23.17V76.83A5.18,5.18,0,0,0,23.17,82H76.83A5.18,5.18,0,0,0,82,76.83V36.59A5.15,5.15,0,0,0,80.49,32.94ZM58.19,22V32.88H31.67V22ZM37.36,78V59.33H62.64V78ZM78,76.83A1.17,1.17,0,0,1,76.83,78H66.64V57.33a2,2,0,0,0-2-2H35.36a2,2,0,0,0-2,2V78H23.17A1.17,1.17,0,0,1,22,76.83V23.17A1.17,1.17,0,0,1,23.17,22h4.5V34.88a2,2,0,0,0,2,2H60.19a2,2,0,0,0,2-2V22H63.4a1.22,1.22,0,0,1,.83.34L77.66,35.77a1.15,1.15,0,0,1,.34.82ZM34.75,29.25v-3a2,2,0,0,1,4,0v3a2,2,0,0,1-4,0Z"/>
</symbol><symbol id="icon-woman" viewBox="0 0 68 78">
<path d="M67.9059 66.1498C64.5648 64.44 61.0663 63.1196 57.5853 61.7315C55.1713 60.7666 52.7574 59.7848 50.3784 58.7183C49.4338 58.2951 48.5592 57.7027 47.7195 57.0932C45.9703 55.8406 45.6029 54.0462 45.7779 51.9979C49.3988 52.3703 52.8099 51.9979 55.7661 49.8142C57.5503 48.4938 58.8273 46.784 59.7544 44.7019C58.6873 45.0235 57.7427 45.3621 56.7632 45.5652C54.1568 46.1239 52.6349 44.6342 53.2996 42.1119C53.5795 41.0793 54.0343 40.0975 54.5241 39.1326C56.2384 35.7131 57.9002 32.2767 58.8098 28.5356C62.4132 13.9944 52.3201 3.71904 41.6147 1.02748C32.711 -1.20703 24.3845 0.0625775 17.4575 6.2244C10.2156 12.674 7.78416 20.7487 10.3905 29.9914C11.3176 33.2585 12.892 36.3394 14.1514 39.5219C14.4838 40.3683 14.8161 41.2147 15.0261 42.078C15.3934 43.6016 14.7112 44.6511 13.1544 45.1251C11.7899 45.5314 10.6529 45.379 8.55383 44.4649C9.06111 46.2593 11.7725 49.0693 14.2739 50.3051C16.9152 51.6086 19.6966 51.8794 22.6528 51.6593C22.7228 53.6399 22.6003 55.5359 20.8336 56.7208C19.0493 57.9058 17.1426 58.9892 15.166 59.8356C11.2652 61.5284 7.25939 63.0011 3.34107 64.6432C2.20405 65.1171 1.10203 65.6927 0 66.2683C10.3031 73.378 38.7634 88.7318 67.9059 66.1498Z"/>
</symbol></svg>