<svg width="64" height="64" viewBox="0 0 64 64" fill="none" xmlns="http://www.w3.org/2000/svg">
<path d="M28.8 41.6H35.2V48H28.8V41.6ZM28.8 16H35.2V35.2H28.8V16ZM32 0C14.304 0 0 14.4 0 32C0 40.4869 3.37142 48.6263 9.37258 54.6274C12.3441 57.5989 15.8717 59.956 19.7541 61.5641C23.6365 63.1723 27.7977 64 32 64C40.4869 64 48.6263 60.6286 54.6274 54.6274C60.6286 48.6263 64 40.4869 64 32C64 27.7977 63.1723 23.6365 61.5641 19.7541C59.956 15.8717 57.5989 12.3441 54.6274 9.37258C51.6559 6.40111 48.1283 4.04401 44.2459 2.43586C40.3635 0.827705 36.2023 0 32 0ZM32 57.6C25.2105 57.6 18.699 54.9029 13.8981 50.1019C9.09714 45.301 6.4 38.7895 6.4 32C6.4 25.2105 9.09714 18.699 13.8981 13.8981C18.699 9.09714 25.2105 6.4 32 6.4C38.7895 6.4 45.301 9.09714 50.1019 13.8981C54.9029 18.699 57.6 25.2105 57.6 32C57.6 38.7895 54.9029 45.301 50.1019 50.1019C45.301 54.9029 38.7895 57.6 32 57.6Z" fill="#FEB700"/>
</svg>
