<svg width="64" height="64" viewBox="0 0 64 64" fill="none" xmlns="http://www.w3.org/2000/svg">
<path d="M28.8 51.2H35.2V44.8H28.8V51.2ZM32 0C27.7977 0 23.6365 0.827705 19.7541 2.43586C15.8717 4.04401 12.3441 6.40111 9.37258 9.37258C3.37142 15.3737 0 23.5131 0 32C0 40.4869 3.37142 48.6263 9.37258 54.6274C12.3441 57.5989 15.8717 59.956 19.7541 61.5641C23.6365 63.1723 27.7977 64 32 64C40.4869 64 48.6263 60.6286 54.6274 54.6274C60.6286 48.6263 64 40.4869 64 32C64 27.7977 63.1723 23.6365 61.5641 19.7541C59.956 15.8717 57.5989 12.3441 54.6274 9.37258C51.6559 6.40111 48.1283 4.04401 44.2459 2.43586C40.3635 0.827705 36.2023 0 32 0ZM32 57.6C17.888 57.6 6.4 46.112 6.4 32C6.4 17.888 17.888 6.4 32 6.4C46.112 6.4 57.6 17.888 57.6 32C57.6 46.112 46.112 57.6 32 57.6ZM32 12.8C28.6052 12.8 25.3495 14.1486 22.949 16.549C20.5486 18.9495 19.2 22.2052 19.2 25.6H25.6C25.6 23.9026 26.2743 22.2748 27.4745 21.0745C28.6748 19.8743 30.3026 19.2 32 19.2C33.6974 19.2 35.3252 19.8743 36.5255 21.0745C37.7257 22.2748 38.4 23.9026 38.4 25.6C38.4 32 28.8 31.2 28.8 41.6H35.2C35.2 34.4 44.8 33.6 44.8 25.6C44.8 22.2052 43.4514 18.9495 41.051 16.549C38.6505 14.1486 35.3948 12.8 32 12.8Z" fill="#FF0707"/>
</svg>
