<svg width="32" height="32" viewBox="0 0 32 32" fill="none" xmlns="http://www.w3.org/2000/svg">
<path d="M14.1865 10.4427C14.245 10.5597 14.3035 10.6767 14.362 10.7644C14.4205 10.8522 14.5083 10.9399 14.5668 11.0277C14.6545 11.1154 14.7423 11.2032 14.8593 11.2909C14.947 11.3494 15.064 11.4372 15.2103 11.4664C15.3273 11.5249 15.4443 11.5542 15.5906 11.5834C15.7368 11.6127 15.8538 11.6127 15.9708 11.6127C16.0878 11.6127 16.2341 11.6127 16.3511 11.5834C16.4681 11.5542 16.5851 11.5249 16.6728 11.4664H16.7021C16.8191 11.4079 16.9361 11.3494 17.0531 11.2617C17.1408 11.2032 17.2286 11.1154 17.3163 11.0277L17.3456 10.9984C17.4333 10.9107 17.4918 10.8229 17.5503 10.7352C17.6088 10.6474 17.6673 10.5597 17.6966 10.4427C17.6966 10.4134 17.6966 10.4134 17.7258 10.3842C17.7843 10.2672 17.8136 10.1209 17.8428 10.0039C17.8721 9.88692 17.8721 9.74066 17.8721 9.62366C17.8721 9.50666 17.8721 9.36041 17.8428 9.24341C17.8136 9.1264 17.7843 9.0094 17.7258 8.86315C17.6381 8.6584 17.5211 8.48289 17.3748 8.33664C17.3456 8.30739 17.3456 8.30739 17.3163 8.27814C17.2286 8.19039 17.1408 8.13189 17.0238 8.04414C16.9068 7.98564 16.8191 7.92713 16.7021 7.86863C16.5851 7.81013 16.4681 7.78088 16.3511 7.75163C16.2048 7.72238 16.0878 7.72238 15.9708 7.72238C15.8538 7.72238 15.7076 7.72238 15.5906 7.75163C15.4736 7.78088 15.3566 7.81013 15.2396 7.86863H15.2103C15.0933 7.92713 14.9763 7.98564 14.8885 8.04414C14.7715 8.13189 14.6838 8.19039 14.596 8.27814C14.5083 8.36589 14.4205 8.45364 14.362 8.54139C14.3035 8.62915 14.245 8.74615 14.1865 8.86315C14.128 8.98015 14.0988 9.09715 14.0695 9.21416C14.0403 9.36041 14.0403 9.47741 14.0403 9.59441C14.0403 9.71141 14.0403 9.85766 14.0695 9.97467C14.0988 10.2087 14.1573 10.3257 14.1865 10.4427Z" fill="#0C3E88"/>
<path d="M18.2514 21.148H17.5786V13.9816C17.5786 13.5721 17.2569 13.2211 16.8181 13.2211H13.7468C13.3373 13.2211 12.9863 13.5429 12.9863 13.9816V15.5612C12.9863 15.9707 13.3081 16.3217 13.7468 16.3217H14.3611V21.1773H13.7468C13.3373 21.1773 12.9863 21.499 12.9863 21.9378V23.5173C12.9863 23.9268 13.3081 24.2778 13.7468 24.2778H18.2514C18.6609 24.2778 19.0119 23.956 19.0119 23.5173V21.9378C19.0119 21.499 18.6609 21.148 18.2514 21.148Z" fill="#0C3E88"/>
<path d="M16 0C7.16636 0 0 7.16636 0 16C0 24.8336 7.16636 32 16 32C24.8336 32 32 24.8336 32 16C32 7.16636 24.8336 0 16 0ZM16 29.894C8.33638 29.894 2.10603 23.6636 2.10603 16C2.10603 8.33638 8.33638 2.10603 16 2.10603C23.6636 2.10603 29.894 8.33638 29.894 16C29.894 23.6636 23.6636 29.894 16 29.894Z" fill="#0C3E88"/>
</svg>